<svg xmlns="http://www.w3.org/2000/svg" version="1.1" viewBox="0.00 0.00 350.00 350.00" width="350.00" height="350.00">
<path fill="#43a3f7" d="&#10;  M 279.70 346.64&#10;  Q 278.85 344.31 279.39 342.68&#10;  C 283.08 331.38 282.81 320.68 280.28 308.98&#10;  Q 278.93 302.78 276.45 298.29&#10;  C 272.37 290.87 268.28 285.83 271.55 279.05&#10;  Q 271.84 278.45 276.20 272.21&#10;  C 279.64 267.28 282.42 259.95 283.57 254.05&#10;  Q 288.68 228.05 276.39 204.91&#10;  C 273.74 199.93 270.26 196.51 271.86 190.74&#10;  Q 272.22 189.45 275.86 184.78&#10;  C 295.32 159.83 285.83 121.17 259.25 105.52&#10;  Q 245.14 97.22 229.02 99.92&#10;  Q 227.56 100.17 224.45 99.01&#10;  A 1.41 1.37 85.3 0 1 223.72 98.37&#10;  Q 222.89 96.82 220.67 92.57&#10;  Q 214.56 80.86 203.50 74.02&#10;  C 193.04 67.55 180.84 63.82 168.70 65.83&#10;  C 150.34 68.88 135.10 79.63 127.62 97.01&#10;  C 125.83 101.16 120.30 99.83 116.73 99.39&#10;  C 107.18 98.20 95.39 102.42 88.71 107.10&#10;  Q 70.22 120.09 65.42 142.74&#10;  C 62.36 157.21 65.43 174.83 75.62 185.71&#10;  C 79.05 189.37 80.19 191.14 79.59 195.35&#10;  Q 79.32 197.24 77.88 199.34&#10;  Q 75.86 202.28 73.82 206.54&#10;  C 64.38 226.34 62.99 249.18 72.92 268.89&#10;  C 74.53 272.08 76.29 274.19 78.56 277.39&#10;  C 81.06 280.92 81.39 285.73 79.56 289.35&#10;  C 77.49 293.46 73.21 299.97 71.84 305.27&#10;  C 68.71 317.41 67.62 329.23 71.36 341.33&#10;  C 71.86 342.95 71.99 344.92 71.66 346.46&#10;  A 0.93 0.92 5.7 0 1 70.75 347.20&#10;  L 54.24 347.20&#10;  A 2.04 2.02 -10.1 0 1 52.33 345.88&#10;  Q 51.43 343.44 50.92 339.80&#10;  C 48.39 321.94 50.01 301.45 59.71 285.68&#10;  A 1.16 1.14 44.5 0 0 59.69 284.46&#10;  Q 48.80 267.62 47.25 247.85&#10;  C 45.86 230.14 48.82 211.99 57.48 196.25&#10;  A 2.19 2.18 41.7 0 0 57.34 193.93&#10;  C 38.34 167.40 41.73 126.03 64.94 103.16&#10;  Q 71.52 96.67 74.75 93.58&#10;  A 2.16 2.15 -26.8 0 0 75.38 91.67&#10;  Q 71.18 67.09 75.25 42.46&#10;  C 77.10 31.22 81.22 19.81 88.41 11.41&#10;  C 95.13 3.57 105.86 0.75 115.09 5.90&#10;  C 130.97 14.78 135.92 39.24 138.03 55.55&#10;  A 0.94 0.94 0.0 0 0 139.43 56.24&#10;  C 154.51 47.56 171.84 43.52 188.96 47.56&#10;  Q 200.87 50.37 211.35 56.34&#10;  A 1.27 1.27 0.0 0 0 213.24 55.40&#10;  C 215.42 38.55 220.43 12.59 238.33 4.83&#10;  C 247.03 1.06 256.80 4.47 262.75 11.55&#10;  Q 268.53 18.43 271.67 27.10&#10;  Q 276.54 40.55 277.45 54.26&#10;  Q 277.82 59.87 277.66 71.25&#10;  Q 277.51 81.35 276.41 88.20&#10;  Q 276.08 90.26 275.53 91.57&#10;  A 1.36 1.34 33.1 0 0 275.85 93.06&#10;  C 285.29 102.12 294.98 110.58 299.47 123.48&#10;  Q 300.85 127.45 301.67 130.00&#10;  C 308.27 150.50 306.32 174.97 293.67 193.02&#10;  A 2.63 2.63 0.0 0 0 293.50 195.74&#10;  C 303.77 215.39 306.73 238.50 302.04 259.87&#10;  Q 299.32 272.27 291.88 283.54&#10;  A 2.63 2.63 0.0 0 0 291.82 286.34&#10;  C 300.58 300.99 302.55 320.12 300.67 336.73&#10;  Q 300.13 341.48 298.68 345.93&#10;  A 1.85 1.84 -80.8 0 1 296.93 347.20&#10;  L 280.50 347.20&#10;  A 0.85 0.84 -9.7 0 1 279.70 346.64&#10;  Z&#10;  M 256.43 83.29&#10;  A 1.00 0.99 12.4 0 0 257.71 82.48&#10;  Q 260.86 60.27 255.15 38.62&#10;  C 253.61 32.81 251.09 26.69 246.75 22.72&#10;  A 1.04 1.04 0.0 0 0 245.42 22.66&#10;  C 240.99 26.01 238.06 32.29 236.44 37.70&#10;  Q 230.98 55.98 231.52 74.48&#10;  Q 231.60 77.13 234.24 79.67&#10;  A 1.94 1.90 67.3 0 0 235.52 80.21&#10;  Q 247.28 80.55 256.43 83.29&#10;  Z&#10;  M 94.72 83.20&#10;  Q 103.86 80.47 115.61 80.13&#10;  A 1.94 1.90 -67.3 0 0 116.89 79.59&#10;  Q 119.53 77.06 119.61 74.41&#10;  Q 120.16 55.92 114.71 37.65&#10;  C 113.10 32.25 110.17 25.97 105.75 22.62&#10;  A 1.04 1.04 0.0 0 0 104.42 22.68&#10;  C 100.08 26.65 97.56 32.76 96.02 38.57&#10;  Q 90.30 60.20 93.44 82.39&#10;  A 1.00 0.99 -12.4 0 0 94.72 83.20&#10;  Z"/>
<path fill="#43a3f7" d="&#10;  M 175.58 147.45&#10;  C 189.53 147.47 202.62 151.82 213.20 160.54&#10;  C 228.35 173.04 233.69 193.79 222.65 210.59&#10;  C 214.91 222.36 199.85 229.46 185.50 229.78&#10;  Q 181.38 229.87 175.50 229.87&#10;  Q 169.61 229.86 165.49 229.76&#10;  C 151.14 229.41 136.10 222.28 128.38 210.50&#10;  C 117.37 193.68 122.75 172.94 137.93 160.47&#10;  C 148.52 151.77 161.63 147.44 175.58 147.45&#10;  Z&#10;  M 175.60 217.31&#10;  Q 180.47 217.30 184.25 217.23&#10;  C 199.88 216.92 218.03 206.42 215.82 188.26&#10;  C 214.51 177.51 205.41 168.75 195.72 164.31&#10;  Q 186.31 160.01 175.49 160.03&#10;  Q 164.67 160.05 155.28 164.39&#10;  C 145.61 168.86 136.54 177.65 135.27 188.40&#10;  C 133.12 206.57 151.31 217.01 166.95 217.26&#10;  Q 170.73 217.32 175.60 217.31&#10;  Z"/>
<ellipse fill="#43a3f7" cx="0.00" cy="0.00" transform="translate(108.88,163.24) rotate(122.6)" rx="13.57" ry="12.33"/>
<ellipse fill="#43a3f7" cx="0.00" cy="0.00" transform="translate(242.21,163.21) rotate(57.4)" rx="13.54" ry="12.32"/>
<path fill="#43a3f7" d="&#10;  M 175.22 180.83&#10;  C 176.05 180.83 177.81 179.89 180.32 178.83&#10;  A 2.95 2.89 -56.6 0 1 181.31 178.62&#10;  C 185.92 178.47 188.37 183.65 185.18 186.96&#10;  Q 182.99 189.24 180.85 190.45&#10;  A 1.89 1.88 70.1 0 0 179.93 192.43&#10;  C 180.79 197.13 182.19 203.18 175.23 203.18&#10;  C 168.26 203.18 169.66 197.13 170.53 192.44&#10;  A 1.89 1.88 -70.1 0 0 169.60 190.45&#10;  Q 167.46 189.24 165.27 186.97&#10;  C 162.08 183.66 164.52 178.48 169.13 178.62&#10;  A 2.95 2.89 56.6 0 1 170.12 178.84&#10;  C 172.64 179.89 174.39 180.83 175.22 180.83&#10;  Z"/>
</svg>