<svg xmlns="http://www.w3.org/2000/svg" version="1.1" viewBox="0.00 0.00 350.00 350.00" width="350.00" height="350.00">
<path fill="#45a3f6" d="&#10;  M 92.09 311.54&#10;  Q 91.83 311.70 90.74 311.74&#10;  Q 87.37 311.86 81.48 311.79&#10;  Q 78.01 311.75 77.37 308.34&#10;  Q 72.90 284.56 83.48 263.61&#10;  A 2.53 2.52 -46.2 0 0 83.44 261.24&#10;  Q 81.04 256.93 79.20 252.83&#10;  C 71.01 234.58 72.31 211.13 81.59 193.08&#10;  C 82.30 191.70 82.14 189.98 81.23 188.45&#10;  Q 65.97 162.88 77.00 134.43&#10;  C 80.79 124.66 87.28 117.90 94.92 111.13&#10;  A 4.40 4.39 65.0 0 0 96.34 107.22&#10;  Q 93.68 89.31 95.94 71.75&#10;  Q 97.37 60.54 102.56 50.57&#10;  C 106.97 42.09 115.25 35.48 124.99 38.80&#10;  C 138.85 43.53 144.27 65.36 145.37 78.41&#10;  A 1.77 1.77 0.0 0 0 147.93 79.84&#10;  Q 152.64 77.43 158.80 75.12&#10;  C 174.78 69.14 189.47 72.60 204.29 80.12&#10;  A 1.73 1.72 15.2 0 0 206.79 78.69&#10;  C 207.62 65.34 214.14 40.14 230.38 38.07&#10;  C 244.94 36.22 252.82 54.86 255.01 66.01&#10;  Q 259.11 86.88 255.65 107.50&#10;  Q 255.36 109.26 256.84 110.66&#10;  Q 261.28 114.85 263.83 117.41&#10;  C 274.50 128.16 278.63 142.29 278.70 157.49&#10;  Q 278.76 168.39 275.65 177.42&#10;  C 274.29 181.35 272.73 183.82 270.17 188.44&#10;  A 3.98 3.94 -43.2 0 0 270.04 192.05&#10;  C 273.90 200.29 276.60 207.72 277.49 217.24&#10;  C 278.90 232.32 277.17 247.78 268.79 260.53&#10;  A 3.17 3.17 0.0 0 0 268.61 263.69&#10;  Q 279.35 284.93 274.53 308.78&#10;  Q 273.93 311.75 270.82 311.79&#10;  Q 265.87 311.84 261.51 311.86&#10;  Q 260.58 311.87 260.12 311.63&#10;  A 2.06 2.06 0.0 0 1 259.09 309.21&#10;  Q 263.85 293.33 258.74 277.30&#10;  Q 257.78 274.28 255.86 270.91&#10;  C 252.40 264.82 250.16 261.98 254.24 255.99&#10;  Q 260.47 246.83 261.95 240.42&#10;  Q 267.77 215.06 253.87 193.14&#10;  Q 252.48 190.95 253.19 187.58&#10;  Q 253.46 186.33 256.33 182.78&#10;  Q 261.65 176.21 263.44 168.22&#10;  C 267.56 149.81 260.61 131.20 245.33 120.46&#10;  C 237.53 114.97 228.36 113.18 218.79 114.34&#10;  Q 216.54 114.62 214.90 113.34&#10;  A 2.02 1.92 -86.5 0 1 214.33 112.66&#10;  Q 209.70 103.79 207.67 101.56&#10;  C 199.56 92.64 185.99 85.85 173.51 86.98&#10;  C 160.21 88.19 147.13 95.14 140.29 107.04&#10;  Q 139.27 108.81 137.30 112.70&#10;  A 3.23 3.23 0.0 0 1 134.11 114.45&#10;  C 121.92 113.26 111.38 115.31 102.08 123.83&#10;  Q 85.81 138.74 87.10 161.52&#10;  Q 87.87 175.19 97.44 185.03&#10;  Q 100.80 188.47 98.13 193.20&#10;  Q 94.23 200.13 93.25 202.45&#10;  C 86.15 219.30 86.15 238.80 96.64 254.21&#10;  C 99.70 258.71 101.24 261.11 98.93 265.94&#10;  C 97.05 269.86 94.69 273.04 93.40 277.11&#10;  Q 88.28 293.29 92.99 309.27&#10;  A 1.98 1.98 0.0 0 1 92.09 311.54&#10;  Z&#10;  M 241.52 101.57&#10;  Q 242.05 100.97 242.13 100.26&#10;  Q 243.76 85.68 241.14 70.93&#10;  C 240.43 66.94 237.17 54.75 233.17 53.21&#10;  A 3.27 3.10 -61.9 0 0 229.42 54.46&#10;  Q 224.58 61.52 222.67 70.44&#10;  Q 219.96 83.05 220.34 94.78&#10;  Q 220.42 96.94 222.73 98.93&#10;  A 2.41 2.38 65.3 0 0 224.25 99.50&#10;  Q 232.50 99.64 240.92 101.75&#10;  A 0.61 0.60 27.4 0 0 241.52 101.57&#10;  Z&#10;  M 110.65 101.46&#10;  A 0.61 0.59 -27.5 0 0 111.24 101.64&#10;  Q 119.64 99.53 127.87 99.37&#10;  A 2.40 2.38 -65.3 0 0 129.39 98.80&#10;  Q 131.69 96.82 131.77 94.66&#10;  Q 132.13 82.96 129.41 70.38&#10;  Q 127.49 61.49 122.65 54.45&#10;  A 3.26 3.10 61.8 0 0 118.91 53.21&#10;  C 114.92 54.75 111.69 66.91 110.98 70.90&#10;  Q 108.39 85.61 110.04 100.16&#10;  Q 110.12 100.87 110.65 101.46&#10;  Z"/>
<path fill="#45a3f6" d="&#10;  M 175.96 152.94&#10;  C 190.06 152.93 203.29 158.75 211.76 169.95&#10;  C 218.26 178.53 220.06 190.13 214.97 199.72&#10;  C 209.46 210.12 198.76 216.27 187.24 217.77&#10;  Q 184.28 218.15 176.01 218.16&#10;  Q 167.74 218.17 164.78 217.79&#10;  C 153.25 216.31 142.54 210.17 137.02 199.78&#10;  C 131.91 190.20 133.70 178.60 140.18 170.00&#10;  C 148.63 158.79 161.85 152.96 175.96 152.94&#10;  Z&#10;  M 176.15 208.80&#10;  C 185.87 208.76 193.35 208.59 201.09 202.47&#10;  Q 210.38 195.12 208.21 183.74&#10;  Q 207.06 177.72 202.57 173.14&#10;  C 195.24 165.65 186.58 162.37 175.98 162.41&#10;  C 165.39 162.45 156.75 165.78 149.47 173.32&#10;  Q 145.02 177.94 143.91 183.96&#10;  Q 141.82 195.36 151.16 202.64&#10;  C 158.94 208.71 166.42 208.83 176.15 208.80&#10;  Z"/>
<ellipse fill="#45a3f6" cx="0.00" cy="0.00" transform="translate(122.78,165.23) rotate(119.6)" rx="10.57" ry="9.41"/>
<ellipse fill="#45a3f6" cx="0.00" cy="0.00" transform="translate(229.24,165.23) rotate(59.3)" rx="10.49" ry="9.44"/>
<path fill="#45a3f6" d="&#10;  M 175.77 179.69&#10;  C 177.96 179.69 180.71 176.56 183.16 178.89&#10;  Q 185.88 181.48 183.13 184.20&#10;  Q 180.75 186.57 180.01 187.12&#10;  A 1.22 1.21 70.8 0 0 179.52 188.14&#10;  C 179.62 191.38 181.25 196.71 175.78 196.71&#10;  C 170.31 196.72 171.93 191.38 172.03 188.14&#10;  A 1.22 1.21 -70.8 0 0 171.54 187.12&#10;  Q 170.80 186.57 168.42 184.21&#10;  Q 165.67 181.49 168.39 178.90&#10;  C 170.84 176.56 173.59 179.69 175.77 179.69&#10;  Z"/>
</svg>